<?xml version="1.0" encoding="utf-8"?>
<!-- Generator: Adobe Illustrator 23.1.0, SVG Export Plug-In . SVG Version: 6.00 Build 0)  -->
<svg version="1.1" id="Warstwa_1" xmlns="http://www.w3.org/2000/svg" xmlns:xlink="http://www.w3.org/1999/xlink" x="0px" y="0px"
	 viewBox="0 0 430 430" style="enable-background:new 0 0 430 430;" xml:space="preserve">
<style type="text/css">
	.st0{fill:#EBE6EF;}
	.st1{fill:#EE6D66;}
	.st2{opacity:0.5;fill:#EE6D66;enable-background:new    ;}
	.st3{fill:#2CA58D;}
</style>
<path class="st0" d="M215,16.1L215,16.1L44,177.2v248.9c0,2.1,1.7,3.9,3.9,3.9H215h0h167.1c2.1,0,3.9-1.7,3.9-3.9V177.2L215,16.1z"
	/>
<path class="st1" d="M287.9,84.8V39.9c0-2.1,1.7-3.9,3.9-3.9h52.6c2.1,0,3.9,1.7,3.9,3.9v101.7"/>
<path class="st2" d="M313.7,86.7V40.1c0-2.2,1.7-4,3.9-4h-25.8c-2.1,0-3.9,1.7-3.9,3.9v44.8"/>
<path class="st1" d="M406.7,218.9L215,38.3L23.3,218.9c-1.6,1.5-4,1.4-5.5-0.2L1.1,200.9c-1.5-1.6-1.4-4,0.2-5.5L204,4.4
	c6.2-5.8,15.9-5.8,22.1,0l202.7,191c1.6,1.5,1.6,3.9,0.2,5.5l-16.8,17.9C410.7,220.3,408.2,220.4,406.7,218.9z"/>
<path class="st3" d="M309.9,201.6l-13.3,82.6c-5.6,23.7-19.1,44.8-38.1,59.9l-41.2,32.3c-1.4,1.1-3.4,1.1-4.8,0l-41.2-32.3
	c-19-15.2-32.4-36.3-38.1-59.9l-13.3-82.6c-0.3-2,1-4,3-4.4c14.9-3.3,72.4-16.8,89.5-30.4c1.5-1.2,3.5-1.2,5,0
	c17,13.6,74.5,27.1,89.5,30.4C308.9,197.6,310.2,199.6,309.9,201.6z"/>
<path class="st0" d="M198.8,304.4c-1.2,0-2.3-0.4-3.2-1.3l-19.8-19.8c-1.8-1.8-1.8-4.6,0-6.4c1.8-1.8,4.6-1.8,6.4,0l16.6,16.6
	l56.1-56.2c1.8-1.8,4.6-1.8,6.4,0c1.8,1.8,1.8,4.6,0,6.4L202,303.1C201.1,304,200,304.4,198.8,304.4z"/>
</svg>
